<svg xmlns="http://www.w3.org/2000/svg" width="32" height="32" viewBox="0 0 32 32"><g transform="translate(302.497 -1330.865)"><path fill="#2dbca4" fill-rule="evenodd" d="m -292.76889,1346.3915 c 0.15762,-0.2733 0.38579,-0.5055 0.66798,-0.6677 l 2.54431,-1.4933 0,-2.4344 3.16585,0 0,2.4344 2.53375,1.5174 c 0.16586,0.095 0.31216,0.216 0.4352,0.3556 0.0767,0.087 0.14428,0.1812 0.20199,0.2813 l 0.31509,0.7693 c -1.70859,0.8355 -3.16405,1.4819 -5.36076,1.6665 l -4.5959,-1.5793 z"/><path fill="#ee6276" d="m -283.36801,1352.5805 1.40932,2.443 2.26609,3.9283 1.21992,2.1147 c 0.44143,0.7653 1.41253,1.0257 2.17724,0.5838 0.76462,-0.4419 1.02494,-1.4137 0.58351,-2.179 l -4.89554,-8.486"/><path fill="#f9b536" d="m -285.52572,1350.2173 1.78963,3.1023 3.95233,-2.2838 -1.8023,-3.1242"/><path fill="#0c5286" d="m -287.3418,312.50977 a 8.8029908,8.8100566 1.4287424 0 0 -4.8164,1.16992 8.8029908,8.8100566 1.4287424 0 0 -3.22266,12.03515 8.8029908,8.8100566 1.4287424 0 0 12.02539,3.22461 8.8029908,8.8100566 1.4287424 0 0 3.22266,-12.03515 8.8029908,8.8100566 1.4287424 0 0 -7.20899,-4.39453 z m -0.0977,2.07031 a 6.7322565,6.7376675 1.4315961 0 1 5.51367,3.36133 6.7322565,6.7376675 1.4315961 0 1 -2.46484,9.20312 6.7322565,6.7376675 1.4315961 0 1 -9.19727,-2.4668 6.7322565,6.7376675 1.4315961 0 1 2.46484,-9.20312 6.7322565,6.7376675 1.4315961 0 1 3.6836,-0.89453 z" transform="translate(0 1020.362)"/><path fill="#f9b536" fill-rule="evenodd" d="m -289.55664,321.43359 0,2.43555 -0.004,0.002 0.4336,0.47461 1.13866,1.01363 1.59769,-1.50023 0,-2.4255 z" transform="translate(0 1020.362)"/><path fill="#f9b036" d="m -289.55664,321.43359 0,2.08008 c 0.39706,0.40551 0.94679,0.65625 1.55664,0.65625 0.64018,0 1.20881,-0.28103 1.60938,-0.72265 l 0,-2.01368 -3.16602,0 z" transform="translate(0 1020.362)"/><path fill="#f9b536" d="m -288.97577,1337.4463 c -0.67544,0 -1.21919,0.5525 -1.21919,1.2389 l 0,1.1011 c 0,0 10e-4,0.013 10e-4,0.014 -2e-5,0 -10e-4,0.013 -10e-4,0.014 l 0,1.4863 c 0,1.2356 0.97919,2.2306 2.19496,2.2306 1.21578,0 2.19496,-0.995 2.19496,-2.2306 l 0,-1.4863 c 0,0 -10e-4,-0.012 -10e-4,-0.014 6e-5,0 10e-4,-0.013 10e-4,-0.014 l 0,-1.6133 c -0.0995,-0.7672 -0.46754,-1.3144 -1.22162,-1.3108 -0.0234,0.3588 -0.39874,0.5617 -0.73335,0.5841 z"/><path fill="#0c5286" d="m -287.02734,316.5 c -0.0234,0.3588 -0.39782,0.56158 -0.73243,0.58398 l -1.21679,0 c -0.67544,0 -1.21875,0.55189 -1.21875,1.23829 l 0,1.1016 c 0,0 0.002,0.0127 0.002,0.0137 -2e-5,0 -0.002,0.0127 -0.002,0.0137 l 0,0.12891 c 0.0136,-0.003 0.0273,-0.004 0.041,-0.006 -0.0263,10e-4 -0.003,-9e-5 0.0488,-0.0332 0.0737,-0.0471 0.17509,-0.1259 0.27149,-0.2129 0.0964,-0.0866 0.18985,-0.18185 0.25195,-0.25585 0.0617,-0.074 0.0864,-0.16959 0.0547,-0.0508 0.0557,-0.20977 0.2403,-0.35968 0.45703,-0.37108 0.18825,-0.009 0.36569,0.0882 0.45898,0.25195 0.1245,0.217 0.23558,0.27908 0.41992,0.33008 0.18435,0.053 0.4492,0.056 0.75,0.043 0.30081,-0.012 0.63319,-0.0406 0.99024,0.0254 0.21628,0.04 0.44598,0.14074 0.64648,0.29688 l 0,-0.14649 c 0,0 -0.002,-0.0117 -0.002,-0.0137 6e-5,0 0.002,-0.0127 0.002,-0.0137 l 0,-1.61333 c -0.0995,-0.7672 -0.46857,-1.31415 -1.22265,-1.31055 z" transform="translate(0 1020.362)"/></g></svg>