<svg xmlns="http://www.w3.org/2000/svg" width="500" height="500" viewBox="0 0 100 100"><g transform="translate(1214.599 2770.852)"><g transform="translate(1051.946 -1460.207)"><g transform="translate(-401.65 -216.074)"><path d="m -1828.6443,-1080.5715 c -5.7435,0.029 -11.4259,2.2656 -15.709,6.5508 -7.3098,7.3134 -8.6476,18.6979 -3.2344,27.5078 5.1789,8.4284 15.2493,12.3898 24.7168,9.9023 -0.477,1.816 -0.7343,3.7209 -0.7343,5.6856 0,12.3376 10.0178,22.3535 22.3554,22.3535 12.3376,0 22.3555,-10.0159 22.3555,-22.3535 0,-12.3376 -10.0179,-22.3556 -22.3555,-22.3555 -1.9653,0 -3.8709,0.2551 -5.6875,0.7324 2.4889,-9.472 -1.4759,-19.546 -9.9101,-24.7226 -3.3047,-2.0283 -6.9712,-3.1051 -10.6485,-3.2754 -0.383,-0.018 -0.7655,-0.027 -1.1484,-0.025 z" style="line-height:normal;text-indent:0;text-align:start;text-decoration-line:none;text-decoration-style:solid;text-decoration-color:#000;text-transform:none;block-progression:tb;white-space:normal;isolation:auto;mix-blend-mode:normal;solid-color:#000;solid-opacity:1" fill="#514c57" color="#000" enable-background="accumulate" font-family="sans-serif" font-weight="400" overflow="visible"/><path d="m -1829.283,-1079.0617 c 3.9947,-0.1426 8.0507,0.8609 11.6504,3.0703 8.1437,4.9983 11.8268,14.8694 8.9942,23.9687 -6.397,2.2432 -11.4658,7.3121 -13.709,13.709 -9.0951,2.8315 -18.9623,-0.8461 -23.9629,-8.9844 -5.0542,-8.2254 -3.8071,-18.834 3.0176,-25.6621 3.8389,-3.8408 8.8738,-5.9182 14.0097,-6.1015 z" style="line-height:normal;text-indent:0;text-align:start;text-decoration-line:none;text-decoration-style:solid;text-decoration-color:#000;text-transform:none;block-progression:tb;white-space:normal;isolation:auto;mix-blend-mode:normal;solid-color:#000;solid-opacity:1" fill="#67dde0" color="#000" enable-background="accumulate" font-family="sans-serif" font-weight="400" overflow="visible"/><path d="m -1801.2498,-1051.7805 c 11.5269,0 20.8555,9.3286 20.8555,20.8555 0,11.527 -9.3286,20.8535 -20.8555,20.8535 -11.5269,0 -20.8554,-9.3265 -20.8554,-20.8535 0,-11.5269 9.3285,-20.8555 20.8554,-20.8555 z" style="line-height:normal;text-indent:0;text-align:start;text-decoration-line:none;text-decoration-style:solid;text-decoration-color:#000;text-transform:none;block-progression:tb;white-space:normal;isolation:auto;mix-blend-mode:normal;solid-color:#000;solid-opacity:1" fill="#fc8e2b" color="#000" enable-background="accumulate" font-family="sans-serif" font-weight="400" overflow="visible"/><path style="line-height:normal;text-indent:0;text-align:start;text-decoration-line:none;text-decoration-style:solid;text-decoration-color:#000;text-transform:none;block-progression:tb;white-space:normal;isolation:auto;mix-blend-mode:normal;solid-color:#000;solid-opacity:1" fill="#acf0f2" d="m -1829.2186,-1077.2417 c 3.6458,-0.1302 7.3476,0.7857 10.633,2.8021 7.4325,4.5618 10.7939,13.5709 8.2087,21.8756 -5.8383,2.0473 -10.4645,6.6735 -12.5118,12.5118 -8.3008,2.5842 -17.3063,-0.7722 -21.8703,-8.1998 -4.6128,-7.5071 -3.4746,-17.1893 2.7541,-23.4211 3.5037,-3.5054 8.0989,-5.4013 12.7863,-5.5686 z" color="#000" enable-background="accumulate" font-family="sans-serif" font-weight="400" overflow="visible"/><path style="line-height:normal;text-indent:0;text-align:start;text-decoration-line:none;text-decoration-style:solid;text-decoration-color:#000;text-transform:none;block-progression:tb;white-space:normal;isolation:auto;mix-blend-mode:normal;solid-color:#000;solid-opacity:1" fill="#e1e1e6" d="m -1801.2498,-1050.0292 c 10.5589,0 19.1041,8.5452 19.1041,19.1042 0,10.5589 -8.5452,19.1022 -19.1041,19.1022 -10.5589,0 -19.104,-8.5433 -19.104,-19.1022 0,-10.559 8.5451,-19.1042 19.104,-19.1042 z" color="#000" enable-background="accumulate" font-family="sans-serif" font-weight="400" opacity=".3" overflow="visible"/></g><g transform="translate(21.79 32.26)"><path d="m -2255.2906,-1316.3009 -6.4395,6.4394 0,13.0606 0.75,0 12.3106,0 6.4394,-6.4395 0,-13.0605 -13.0605,0 z" style="line-height:normal;text-indent:0;text-align:start;text-decoration-line:none;text-decoration-style:solid;text-decoration-color:#000;text-transform:none;block-progression:tb;white-space:normal;isolation:auto;mix-blend-mode:normal;solid-color:#000;solid-opacity:1" fill="#514c57" fill-rule="evenodd" color="#000" enable-background="accumulate" font-family="sans-serif" font-weight="400" overflow="visible"/><path d="M-2254.6695-1314.8009l9.8808 0-4.5019 4.5-9.8789 0 4.5-4.5zM-2243.7301-1313.7384l0 9.8769-4.5 4.5 0-9.8789 4.5-4.498zM-2260.2301-1308.8009l10.5 0 0 10.5-10.5 0 0-10.5z" style="line-height:normal;text-indent:0;text-align:start;text-decoration-line:none;text-decoration-style:solid;text-decoration-color:#000;text-transform:none;block-progression:tb;white-space:normal;isolation:auto;mix-blend-mode:normal;solid-color:#000;solid-opacity:1" fill="#fff" fill-rule="evenodd" color="#000" enable-background="accumulate" font-family="sans-serif" font-weight="400" overflow="visible"/><path style="line-height:normal;text-indent:0;text-align:start;text-decoration-line:none;text-decoration-style:solid;text-decoration-color:#000;text-transform:none;block-progression:tb;white-space:normal;isolation:auto;mix-blend-mode:normal;solid-color:#000;solid-opacity:1" fill="#e1e1e6" fill-rule="evenodd" d="M-2259.5017-1308.0725l9.0432 0 0 9.0432-9.0432 0 0-9.0432zM-2244.1679-1312.3396l0 7.955-3.6244 3.6243 0-7.9566 3.6244-3.6227zM-2254.2262-1314.4302l8.2528 0-3.7602 3.7586-8.2512 0 3.7586-3.7586z" color="#000" enable-background="accumulate" font-family="sans-serif" font-weight="400" opacity=".3" overflow="visible"/></g></g><path d="m -266.34249,1268.644 c -0.66194,0.5465 -1.24854,1.1972 -1.7323,1.9427 -1.935,2.9822 -1.82716,6.8545 0.26807,9.7264 l 0.93391,-0.6834 c -1.81452,-2.4871 -1.90463,-5.8299 -0.22883,-8.4124 1.67575,-2.5827 4.76501,-3.8623 7.77563,-3.2186 3.01057,0.6438 5.30786,3.0761 5.78088,6.1182 0.44579,2.8666 -0.81785,5.7055 -3.20151,7.302 l 5.6e-4,-2.5408 -1.15592,-7e-4 -7.7e-4,4.5814 4.57802,-5e-4 6.2e-4,-1.158 -2.66007,-8e-4 c 2.67557,-1.8589 4.0904,-5.0991 3.58318,-8.3609 -0.54626,-3.5127 -3.20757,-6.3272 -6.68389,-7.0706 -2.60724,-0.5575 -5.27171,0.1365 -7.25758,1.776 z" style="line-height:normal;text-indent:0;text-align:start;text-decoration-line:none;text-decoration-style:solid;text-decoration-color:#000;text-transform:none;block-progression:tb;white-space:normal;isolation:auto;mix-blend-mode:normal;solid-color:#000;solid-opacity:1" fill="#514c57" color="#000" enable-background="accumulate" font-family="sans-serif" font-weight="400" overflow="visible" transform="matrix(1.00249 .82054 -.81921 1.0041 155.268 -3773.97)"/></g></svg>